<svg width="22" height="22" viewBox="0 0 22 22" fill="none" xmlns="http://www.w3.org/2000/svg">
<path d="M20.5992 9.42559H11.1992V13.1256H16.6992C16.5992 14.0256 15.9992 15.4256 14.6992 16.3256C13.8992 16.9256 12.6992 17.3256 11.1992 17.3256C8.59922 17.3256 6.29922 15.6256 5.49922 13.1256C5.29922 12.5256 5.19922 11.8256 5.19922 11.1256C5.19922 10.4256 5.29922 9.72559 5.49922 9.12559C5.59922 8.92559 5.59922 8.72559 5.69922 8.62559C6.59922 6.52559 8.69922 5.02559 11.1992 5.02559C13.0992 5.02559 14.2992 5.82559 15.0992 6.52559L17.8992 3.72559C16.1992 2.22559 13.8992 1.22559 11.1992 1.22559C7.29922 1.22559 3.89922 3.42559 2.29922 6.72559C1.59922 8.12559 1.19922 9.62559 1.19922 11.2256C1.19922 12.8256 1.59922 14.3256 2.29922 15.7256C3.89922 19.0256 7.29922 21.2256 11.1992 21.2256C13.8992 21.2256 16.1992 20.3256 17.7992 18.8256C19.6992 17.1256 20.7992 14.5256 20.7992 11.4256C20.7992 10.6256 20.6992 10.0256 20.5992 9.42559Z" stroke="#595959" stroke-width="1.5" stroke-miterlimit="10" stroke-linecap="round" stroke-linejoin="round"/>
</svg>
